<mxfile host="app.diagrams.net" agent="Mozilla/5.0 (Macintosh; Intel Mac OS X 10_15_7) AppleWebKit/605.1.15 (KHTML, like Gecko) Version/18.3 Safari/605.1.15" version="26.3.0">
  <diagram name="第 1 页" id="xCTyEMLdGCaIyefQZ2F_">
    <mxGraphModel dx="976" dy="671" grid="1" gridSize="10" guides="1" tooltips="1" connect="1" arrows="1" fold="1" page="1" pageScale="1" pageWidth="827" pageHeight="1169" math="0" shadow="0">
      <root>
        <mxCell id="0" />
        <mxCell id="1" parent="0" />
        <mxCell id="YIstWTecRNFxvellkJOl-1" value="" style="rounded=1;whiteSpace=wrap;html=1;arcSize=15;fillColor=#d5e8d4;strokeColor=#82b366;glass=1;" vertex="1" parent="1">
          <mxGeometry x="130" y="120" width="30" height="20" as="geometry" />
        </mxCell>
        <mxCell id="YIstWTecRNFxvellkJOl-2" value="" style="rounded=1;whiteSpace=wrap;html=1;arcSize=15;fillColor=#d5e8d4;strokeColor=#82b366;glass=1;" vertex="1" parent="1">
          <mxGeometry x="140" y="130" width="30" height="20" as="geometry" />
        </mxCell>
        <mxCell id="YIstWTecRNFxvellkJOl-3" value="" style="rounded=1;whiteSpace=wrap;html=1;arcSize=15;fillColor=#d5e8d4;strokeColor=#82b366;glass=1;" vertex="1" parent="1">
          <mxGeometry x="150" y="140" width="30" height="20" as="geometry" />
        </mxCell>
        <mxCell id="YIstWTecRNFxvellkJOl-4" value="" style="rounded=1;whiteSpace=wrap;html=1;arcSize=15;fillColor=#d5e8d4;strokeColor=#82b366;glass=1;" vertex="1" parent="1">
          <mxGeometry x="160" y="150" width="30" height="20" as="geometry" />
        </mxCell>
        <mxCell id="YIstWTecRNFxvellkJOl-6" value="" style="rounded=1;whiteSpace=wrap;html=1;fillColor=#dae8fc;strokeColor=#6c8ebf;" vertex="1" parent="1">
          <mxGeometry x="185" y="240" width="395" height="40" as="geometry" />
        </mxCell>
        <mxCell id="YIstWTecRNFxvellkJOl-7" value="&lt;font face=&quot;Times New Roman&quot; style=&quot;font-size: 18px;&quot;&gt;Expert 1&lt;/font&gt;" style="rounded=1;whiteSpace=wrap;html=1;fillColor=#fff2cc;strokeColor=#d6b656;arcSize=4;" vertex="1" parent="1">
          <mxGeometry x="185" y="320" width="130" height="160" as="geometry" />
        </mxCell>
        <mxCell id="YIstWTecRNFxvellkJOl-8" value="&lt;font face=&quot;Times New Roman&quot; style=&quot;font-size: 18px;&quot;&gt;Expert 2&lt;/font&gt;" style="rounded=1;whiteSpace=wrap;html=1;fillColor=#fff2cc;strokeColor=#d6b656;arcSize=5;" vertex="1" parent="1">
          <mxGeometry x="315" y="320" width="130" height="160" as="geometry" />
        </mxCell>
        <mxCell id="YIstWTecRNFxvellkJOl-9" value="&lt;span style=&quot;font-family: &amp;quot;Times New Roman&amp;quot;; font-size: 18px;&quot;&gt;Expert 3&lt;/span&gt;" style="rounded=1;whiteSpace=wrap;html=1;fillColor=#fff2cc;strokeColor=#d6b656;arcSize=7;" vertex="1" parent="1">
          <mxGeometry x="445" y="320" width="130" height="160" as="geometry" />
        </mxCell>
      </root>
    </mxGraphModel>
  </diagram>
</mxfile>
